<svg width="28" height="36" viewBox="0 0 28 36" fill="none" xmlns="http://www.w3.org/2000/svg">
<g clip-path="url(#clip0_4793_45952)">
<path d="M28 14.3438C28 17.1324 27.2233 19.7353 25.8793 21.9375C20.1992 31.2453 14 36 14 36C14 36 7.80082 31.2453 2.12068 21.9375C0.776749 19.7353 0 17.1324 0 14.3438C0 6.42192 6.26801 0 14 0C21.732 0 28 6.42192 28 14.3438Z" fill="#1AB248"/>
<rect x="3" y="3" width="22" height="22" rx="11" fill="white"/>
<path fill-rule="evenodd" clip-rule="evenodd" d="M20.7937 17.6239L19.9792 17.6238C20.1641 17.9281 20.2716 18.2802 20.2716 18.6566C20.2716 19.795 19.3028 20.7217 18.1121 20.7217C16.9214 20.7217 15.9525 19.795 15.9525 18.6566C15.9525 18.2802 16.0601 17.9281 16.2449 17.6238H13.6808C13.8656 17.9281 13.9729 18.2802 13.9729 18.6566C13.9729 19.795 13.0046 20.7217 11.8139 20.7217C10.6229 20.7217 9.6541 19.795 9.6541 18.6566C9.6541 18.2802 9.76166 17.9281 9.94623 17.6238L9.1232 17.6239C8.82647 17.6239 8.58351 17.3914 8.58351 17.1075L8.57417 9.98375L6.82458 8.30977C6.61406 8.10904 6.61406 7.78045 6.82458 7.57973C7.03429 7.379 7.37778 7.379 7.58803 7.57973L9.5149 9.42291C9.5222 9.42989 9.52436 9.43945 9.53111 9.44668C9.55328 9.47251 9.57273 9.50041 9.58922 9.53038C9.65543 9.6381 9.67651 9.759 9.65408 9.87887L9.66343 16.5911H20.7937C21.0904 16.5911 21.3334 16.8236 21.3334 17.1075C21.3334 17.3914 21.0904 17.6239 20.7937 17.6239ZM11.8139 17.6238C11.2183 17.6238 10.7337 18.087 10.7337 18.6566C10.7337 19.2259 11.2183 19.6891 11.8139 19.6891C12.409 19.6891 12.8933 19.2259 12.8933 18.6566C12.8933 18.087 12.409 17.6238 11.8139 17.6238ZM17.0322 18.6566C17.0322 19.2259 17.5167 19.6891 18.1121 19.6891C18.7077 19.6891 19.1917 19.2259 19.1917 18.6566C19.1917 18.087 18.7077 17.6238 18.1121 17.6238C17.5167 17.6238 17.0322 18.087 17.0322 18.6566ZM19.7138 15.5585H11.2379C10.9395 15.5585 10.6977 15.3273 10.6977 15.0421L10.6977 7.79337C10.6977 7.50843 10.9396 7.27722 11.2379 7.27722H14.9629H16.0425L19.7138 7.29711C20.0121 7.29711 20.2537 7.52832 20.2537 7.81326V15.0421C20.2537 15.3273 20.0121 15.5585 19.7138 15.5585ZM19.1738 8.32966L16.0425 8.30977V9.85897C16.0425 10.1442 15.8009 10.3751 15.5028 10.3751C15.2045 10.3751 14.9629 10.1442 14.9629 9.85897V8.30977H11.7776L11.7776 14.526H19.1738V8.32966Z" fill="#1AB248"/>
</g>
<defs>
<clipPath id="clip0_4793_45952">
<rect width="28" height="36" fill="white"/>
</clipPath>
</defs>
</svg>
